<svg xmlns="http://www.w3.org/2000/svg" version="1.1" xmlns:xlink="http://www.w3.org/1999/xlink" xmlns:svgjs="http://svgjs.com/svgjs" width="512" height="512"><svg id="SvgjsSvg1000" enable-background="new 0 0 512 512" height="512" viewBox="0 0 512 512" width="512" xmlns="http://www.w3.org/2000/svg"><g><path d="m314.579 261.737h-117.158c-76.683 0-138.846 62.165-138.846 138.848v75.319c0 2.845 2.306 5.151 5.151 5.151h384.548c2.845 0 5.15-2.306 5.15-5.151v-75.32c0-76.683-62.162-138.847-138.845-138.847z" fill="#528fd8"></path><path d="m314.579 261.737h-27.815c76.683 0 138.847 62.164 138.847 138.847v75.322c0 2.845-2.306 5.149-5.151 5.149h27.814c2.845 0 5.15-2.306 5.15-5.151v-75.32c0-76.683-62.162-138.847-138.845-138.847z" fill="#0573ce"></path><g fill="#0573ce"><path d="m366.042 343.597c2.086 0 4.166-.84 5.689-2.496 1.254-1.363 17.89-19.674 32.754-46.315-3.99-3.394-8.17-6.571-12.53-9.503-14.473 26.475-31.304 45.038-31.601 45.361-2.885 3.141-2.68 8.027.46 10.914 1.484 1.365 3.359 2.039 5.228 2.039z"></path><path d="m140.269 341.101c1.524 1.657 3.603 2.496 5.689 2.496 1.869 0 3.743-.674 5.228-2.039 3.141-2.888 3.346-7.776.457-10.917-.297-.323-17.143-18.863-31.619-45.344-4.33 2.913-8.483 6.068-12.448 9.437 1.488 2.659 3.02 5.327 4.647 8.013 13.803 22.776 27.471 37.728 28.046 38.354z"></path></g><path d="m256 0c-91.147 0-164.295 147.008-164.295 203.463 0 61.051 54.251 120.045 54.251 120.045h220.087s54.251-58.995 54.251-120.045c.001-56.455-73.147-203.463-164.294-203.463z" fill="#528fd8"></path><path d="m394.817 219.605c0 17.999-3.328 60.57-8.344 77.26 15.38-22.912 33.822-57.804 33.822-93.402 0-56.455-73.148-203.463-164.295-203.463-4.915 0-9.774.452-14.576 1.27 86.215 15.946 153.393 153.896 153.393 218.335z" fill="#0573ce"></path><path d="m360.097 165.059v55.176c0 57.028-46.235 103.274-103.273 103.274h-1.647c-57.038 0-103.273-46.246-103.273-103.274v-55.176c69.394-31.925 138.798-31.925 208.193 0z" fill="#017297"></path><path d="m305.935 262.295v-41.625h-99.87v41.625c0 6.708-5.157 12.293-11.845 12.823l-25.24 2.001c18.481 27.947 50.182 46.389 86.197 46.389h1.647c36.015 0 67.716-18.442 86.197-46.389l-25.24-2.001c-6.689-.53-11.846-6.114-11.846-12.823z" fill="#ffbd86"></path><path d="m332.09 153.928c-50.725-17.057-101.454-17.057-152.18 0v26.952c0 36.751 29.793 66.544 66.544 66.544h19.092c36.751 0 66.544-29.793 66.544-66.544z" fill="#fed2a4"></path><path d="m189.079 353.319c-3.659 0-6.625 2.966-6.625 6.625v66.905c0 43.281 31.95 79.094 73.552 85.15 41.602-6.056 73.541-41.869 73.541-85.151v-66.905c0-3.659-2.966-6.625-6.625-6.625h-133.843z" fill="#ffd15b"></path><path d="m322.922 353.319h-26.75c3.659 0 6.625 2.966 6.625 6.625v66.905c0 38.508-25.291 71.083-60.166 82.07 4.324 1.362 8.786 2.412 13.375 3.08 41.602-6.056 73.541-41.869 73.541-85.151v-66.905c-.001-3.658-2.967-6.624-6.625-6.624z" fill="#fdb441"></path><path d="m290.45 413.14-19.881-4.471c-.747-.168-1.391-.636-1.782-1.294l-10.396-17.527c-1.077-1.816-3.706-1.816-4.783 0l-10.396 17.527c-.39.658-1.035 1.126-1.782 1.294l-19.881 4.471c-2.06.463-2.873 2.963-1.478 4.549l13.456 15.303c.505.575.752 1.332.681 2.094l-1.892 20.29c-.196 2.103 1.931 3.648 3.87 2.812l18.712-8.069c.703-.303 1.499-.303 2.202 0l18.712 8.069c1.939.836 4.066-.709 3.87-2.812l-1.892-20.29c-.071-.762.175-1.52.681-2.094l13.456-15.303c1.396-1.586.583-4.086-1.477-4.549z" fill="#fe7d43"></path><g fill="#0573ce"><path d="m124.91 481.055v-80.472c0-4.267-3.459-7.726-7.726-7.726s-7.726 3.459-7.726 7.726v80.472z"></path><path d="m402.543 481.055v-80.472c0-4.267-3.459-7.726-7.726-7.726s-7.726 3.459-7.726 7.726v80.472z"></path></g><path d="m256 209.309c-7.05 0-14.101-1.293-21.102-3.878-3.885-1.435-5.872-5.749-4.437-9.634s5.748-5.871 9.634-4.437c10.702 3.953 21.107 3.953 31.81 0 3.889-1.435 8.2.552 9.634 4.437 1.435 3.886-.552 8.199-4.437 9.634-7.001 2.585-14.051 3.878-21.102 3.878z" fill="#d77f4a"></path><path d="m369.592 177.347c-1.164 0-2.347-.264-3.459-.822-3.077-1.544-6.192-3.04-9.258-4.448-33.531-15.395-67.471-23.201-100.876-23.201s-67.345 7.806-100.876 23.201c-3.066 1.407-6.181 2.904-9.258 4.448-3.814 1.914-8.458.373-10.371-3.441s-.373-8.457 3.441-10.371c3.236-1.623 6.513-3.198 9.739-4.679 71.214-32.696 143.433-32.696 214.647 0 3.227 1.481 6.504 3.056 9.739 4.679 3.814 1.913 5.355 6.556 3.441 10.371-1.353 2.702-4.078 4.263-6.909 4.263z" fill="#0573ce"></path></g></svg><style>@media (prefers-color-scheme: light) { :root { filter: none; } }
</style></svg>